<svg xmlns="http://www.w3.org/2000/svg" width="94" height="35" viewBox="0 0 93.53 34.83"><title>Ресурс 6</title><g id="Слой_2" data-name="Слой 2"><g id="Layer_1" data-name="Layer 1"><path d="M63.18,32.58h.59v-.42h-.59Z" fill="#ffffff"/><path d="M11.42,1.13A2.5,2.5,0,0,0,13,1.56C13,1.1,11.62,1,11.42,1.13Z" fill="#ffffff"/><path d="M14.16,1.46c.08.34-.9-.08-.59.42a59.23,59.23,0,0,0,6.91,0c-.32-.46-1.22-.53-1.78-.56C17.34,1.25,15.72,1.82,14.16,1.46Z" fill="#ffffff"/><path d="M38.63,32c-.16-.52-1.54-1-1.38,0,1.38,0,1.28.51,1.28.51l.3.33.1-.51Z" fill="#ffffff"/><path d="M38.83,32.88c0,.27-.24.22-.4.28.7.86-.35,1.12.4,1.67.26-1,1.27-.28.79-1.12l2.57-.84C41.06,33.32,40.09,31.88,38.83,32.88Z" fill="#ffffff"/><path d="M11.42.56C11,.46,11,0,10.43,0c0,.24-.15.36-.39.42C9.46-.52,8.13.74,7.28,0,7.46.95,10.51,1,11.42.56Z" fill="#ffffff"/><path d="M3.77,2.68V3c.2,0,.23.11.4.14C4.14,2.89,4.19,2.62,3.77,2.68Z" fill="#ffffff"/><path d="M7.68,1.37c-.16-.26-1.54-.53-1.38,0,1.38,0,1.28.26,1.28.26l.3.16L8,1.54Z" fill="#ffffff"/><path d="M7.88,1.79c0,.14-.24.11-.4.14.7.43-.35.56.4.85.26-.49,1.27-.14.79-.56l2.57-.42C10.11,2,9.14,1.29,7.88,1.79Z" fill="#ffffff"/><path d="M8.76,3.18c.47-.13,1.12.43,1.17-.07H8.76Z" fill="#ffffff"/><path d="M0,1.53H.59V1.1H0Z" fill="#ffffff"/><path d="M59.44,10.19a4.22,4.22,0,0,1,.85-1.35l.23-.13a16.77,16.77,0,0,1,9.61-5.64l.94-.55a12,12,0,0,1,1.24.19c2-.24,2.55-.1,0-.74L72,2a24.54,24.54,0,0,0-3.11.13,14.56,14.56,0,0,0-9,5,9.51,9.51,0,0,0-1.16,4.25C59,11,59.19,10.57,59.44,10.19Z" fill="#ffffff"/><path d="M71.06.86A15.61,15.61,0,1,0,86.67,16.48,15.63,15.63,0,0,0,71.06.86Zm0,30.19A14.56,14.56,0,0,1,59.89,7.13c1.39-2.49,4.16-4.51,9-5a14.54,14.54,0,0,1,2.18-.18c.31,0,.62,0,.93,0h.31a14.57,14.57,0,0,1-1.24,29.08Z" fill="#ffffff"/><path d="M60.51,8.71a16,16,0,0,0-1.08,1.48,12,12,0,0,0-.69,2.3,11.54,11.54,0,0,0,.72,3.42l-.92-2.24a10.51,10.51,0,0,0,.7,6.06c.86,1.53-.12.3-.65-.4a1.88,1.88,0,0,1-.25-.34c-.31,1.38,3.75,4.68,4.45,5.87A42.59,42.59,0,0,1,58,20.62c3.07,10,15.61,13.44,23.81,5.2,4.33-4.35,3-15.31-.37-18.42a21.32,21.32,0,0,0-9.13-4.69c-.61.07-1.35.19-2.18.37Zm9.82-4.28a.52.52,0,1,1,1,0v10a2.08,2.08,0,1,1-2.53,2.53H62.53a.52.52,0,0,1,0-1h6.32a2.07,2.07,0,0,1,1.49-1.49Z" fill="#ffffff"/><path d="M92.74,11.49c1.28.46.8-.4,0,0Z" fill="#ffffff"/><path d="M93.14,8.28c-.25-.19-1-.22-1,.14C92.43,8.34,93.17,8.58,93.14,8.28Z" fill="#ffffff"/><path d="M58.6,19.2c0,.06,0,.12,0,.14l.08.1Z" fill="#ffffff"/><path d="M71.94,34.23c.47-.13,1.12.43,1.17-.07H71.94Z" fill="#ffffff"/><path d="M58.59,19.33h0C58.14,18.7,58.28,18.91,58.59,19.33Z" fill="#ffffff"/><path d="M66.95,33.74V34c.2,0,.23.11.4.14C67.32,33.94,67.37,33.67,66.95,33.74Z" fill="#ffffff"/><path d="M58.6,19.2c0-.11-.08-.2,0,0Z" fill="#ffffff"/><path d="M58.73,11.39c-.21.4-.42.82-.61,1.26l.42,1c.05-.4.12-.8.2-1.18S58.72,11.76,58.73,11.39Z" fill="#ffffff"/></g></g></svg>