<svg width="42" height="35" xmlns="http://www.w3.org/2000/svg" xmlns:xlink="http://www.w3.org/1999/xlink" xml:space="preserve" overflow="hidden"><defs><clipPath id="clip0"><rect x="218" y="188" width="42" height="35"/></clipPath></defs><g clip-path="url(#clip0)" transform="translate(-218 -188)"><path d="M63.1349 32.5567 63.7245 32.5567 63.7245 32.137 63.1349 32.137Z" fill="#D9A500" fill-opacity="0.76" transform="matrix(1 0 0 1.0056 166.53 188)"/><path d="M11.4118 1.12919C11.875 1.44561 12.4311 1.59696 12.9907 1.55889 12.9907 1.09921 11.6117 0.999286 11.4118 1.12919Z" fill="#D9A500" fill-opacity="0.76" transform="matrix(1 0 0 1.0056 166.53 188)"/><path d="M14.1499 1.45896C14.2298 1.79872 13.2505 1.37902 13.5603 1.87866 15.8601 2.01303 18.1656 2.01303 20.4654 1.87866 20.1456 1.41899 19.2463 1.34904 18.6867 1.31906 17.3276 1.24911 15.7088 1.8187 14.1499 1.45896Z" fill="#D9A500" fill-opacity="0.76" transform="matrix(1 0 0 1.0056 166.53 188)"/><path d="M38.6024 31.9772C38.4425 31.4575 37.0635 30.9779 37.2234 31.9772 38.6024 31.9772 38.5025 32.4868 38.5025 32.4868L38.8023 32.8166 38.9022 32.3069Z" fill="#D9A500" fill-opacity="0.76" transform="matrix(1 0 0 1.0056 166.53 188)"/><path d="M38.8023 32.8565C38.8023 33.1263 38.5625 33.0764 38.4026 33.1363 39.1021 33.9957 38.0528 34.2555 38.8023 34.8051 39.0621 33.8059 40.0714 34.5253 39.5917 33.6859L42.1599 32.8465C41.0307 33.2962 40.0614 31.8572 38.8023 32.8565Z" fill="#D9A500" fill-opacity="0.76" transform="matrix(1 0 0 1.0056 166.53 188)"/><path d="M11.4118 0.5596C10.9921 0.459672 10.9921 0 10.4226 0 10.4226 0.239829 10.2727 0.359743 10.0328 0.4197 9.45325-0.519629 8.1242 0.739472 7.2748 0 7.45468 0.949322 10.5025 0.999286 11.4118 0.5596Z" fill="#D9A500" fill-opacity="0.76" transform="matrix(1 0 0 1.0056 166.53 188)"/><path d="M3.76731 2.67809 3.76731 2.99786C3.96717 2.99786 3.99715 3.10778 4.16702 3.13776 4.13704 2.88794 4.18701 2.61813 3.76731 2.67809Z" fill="#D9A500" fill-opacity="0.76" transform="matrix(1 0 0 1.0056 166.53 188)"/><path d="M7.67452 1.36902C7.51463 1.10921 6.13562 0.8394 6.2955 1.36902 7.67452 1.36902 7.57459 1.62884 7.57459 1.62884L7.87438 1.78872 7.99429 1.5389Z" fill="#D9A500" fill-opacity="0.76" transform="matrix(1 0 0 1.0056 166.53 188)"/><path d="M7.87438 1.78872C7.87438 1.92862 7.63455 1.89864 7.47466 1.92862 8.17416 2.35832 7.12491 2.48822 7.87438 2.77802 8.13419 2.28837 9.14347 2.63812 8.66381 2.21842L11.232 1.79872C10.1028 1.99857 9.13348 1.28908 7.87438 1.78872Z" fill="#D9A500" fill-opacity="0.76" transform="matrix(1 0 0 1.0056 166.53 188)"/><path d="M8.75375 3.17773C9.22341 3.04782 9.87295 3.60742 9.92291 3.10778L8.75375 3.10778Z" fill="#D9A500" fill-opacity="0.76" transform="matrix(1 0 0 1.0056 166.53 188)"/><path d="M0 1.52891 0.589579 1.52891 0.589579 1.09921 0 1.09921Z" fill="#D9A500" fill-opacity="0.76" transform="matrix(1 0 0 1.0056 166.53 188)"/><path d="M59.3976 10.1827C59.5923 9.68313 59.8806 9.22527 60.247 8.83369L60.4768 8.70378C62.9419 5.78549 66.3301 3.79701 70.0799 3.06781L71.0193 2.5182C71.4354 2.55984 71.849 2.62322 72.2584 2.70807 74.257 2.46824 74.8066 2.60814 72.2584 1.96859L71.9486 1.99857C70.911 1.97607 69.873 2.01946 68.8408 2.12848 65.3345 2.64308 62.1366 4.41972 59.8473 7.12491 59.1338 8.43032 58.7368 9.88501 58.6881 11.3719 58.9579 10.9921 59.1478 10.5625 59.3976 10.1827Z" fill="#D9A500" fill-opacity="0.76" transform="matrix(1 0 0 1.0056 166.53 188)"/><path d="M71.0093 0.859386C62.3942 0.859388 55.4104 7.84324 55.4104 16.4582 55.4104 25.0733 62.3942 32.0571 71.0093 32.0571 79.6204 32.0571 86.6026 25.0794 86.6081 16.4682 86.6026 7.85389 79.6236 0.870408 71.0093 0.859387ZM71.0093 31.0278C62.9737 31.0373 56.452 24.531 56.4425 16.4955 56.4384 13.0685 57.6441 9.74997 59.8473 7.12491 61.2363 4.63669 64.0043 2.61813 68.8408 2.12848 69.5614 2.01391 70.2896 1.95378 71.0193 1.94861 71.3291 1.94861 71.6388 1.94861 71.9486 1.94861L72.2584 1.94861C80.2665 2.67632 86.1684 9.75805 85.4406 17.7661 84.7619 25.2357 78.5195 30.9674 71.0193 31.0079Z" fill="#D9A500" fill-opacity="0.76" transform="matrix(1 0 0 1.0056 166.53 188)"/><path d="M60.4668 8.70378C60.0791 9.17575 59.7187 9.66953 59.3876 10.1827 59.0815 10.9239 58.8505 11.6938 58.6981 12.4811 58.763 13.6502 59.0057 14.8026 59.4176 15.8986L58.4982 13.6602C58.1276 15.7036 58.371 17.8109 59.1977 19.7159 60.0571 21.2448 59.0778 20.0157 58.5482 19.3162 58.4525 19.2127 58.3686 19.0988 58.2984 18.9764 57.9886 20.3555 62.0457 23.6531 62.7452 24.8423 61.0457 23.5519 59.4456 22.1356 57.9586 20.6053 61.0264 30.5981 73.5575 34.0357 81.7516 25.8016 86.0785 21.4547 84.7495 10.5025 81.3819 7.39472 78.7677 5.11283 75.6359 3.50399 72.2584 2.70807 71.6488 2.77802 70.9094 2.89793 70.0799 3.0778ZM70.2798 4.42684C70.201 4.1509 70.3607 3.86329 70.6367 3.78447 70.9127 3.70564 71.2002 3.86544 71.2791 4.14138 71.3058 4.23467 71.3058 4.33355 71.2791 4.42684L71.2791 14.4197C72.3913 14.7038 73.0627 15.8357 72.7786 16.9479 72.4946 18.0601 71.3627 18.7315 70.2504 18.4474 69.5141 18.2594 68.939 17.6844 68.7509 16.9479L62.4854 16.9479C62.2095 16.8691 62.0496 16.5815 62.1284 16.3056 62.1778 16.1329 62.3127 15.998 62.4854 15.9486L68.8009 15.9486C68.9885 15.2179 69.5591 14.6473 70.2898 14.4597Z" fill="#D9A500" fill-opacity="0.76" transform="matrix(1 0 0 1.0056 166.53 188)"/><path d="M92.6738 11.4818C93.9529 11.9415 93.4732 11.0821 92.6738 11.4818Z" fill="#D9A500" fill-opacity="0.76" transform="matrix(1 0 0 1.0056 166.53 188)"/><path d="M93.0735 8.27409C92.8237 8.08423 92.0742 8.05425 92.0742 8.41399 92.364 8.33405 93.1035 8.57388 93.0735 8.27409Z" fill="#D9A500" fill-opacity="0.76" transform="matrix(1 0 0 1.0056 166.53 188)"/><path d="M58.5582 19.1863C58.5582 19.2463 58.5582 19.3062 58.5582 19.3262L58.6381 19.4261Z" fill="#D9A500" fill-opacity="0.76" transform="matrix(1 0 0 1.0056 166.53 188)"/><path d="M71.8887 34.2056C72.3583 34.0757 73.0079 34.6353 73.0578 34.1356L71.8887 34.1356Z" fill="#D9A500" fill-opacity="0.76" transform="matrix(1 0 0 1.0056 166.53 188)"/><path d="M58.5482 19.3162 58.5482 19.3162C58.0985 18.6867 58.2384 18.8965 58.5482 19.3162Z" fill="#D9A500" fill-opacity="0.76" transform="matrix(1 0 0 1.0056 166.53 188)"/><path d="M66.9022 33.7159 66.9022 33.9757C67.1021 33.9757 67.1321 34.0857 67.3019 34.1156 67.2719 33.9158 67.3219 33.646 66.9022 33.7159Z" fill="#D9A500" fill-opacity="0.76" transform="matrix(1 0 0 1.0056 166.53 188)"/><path d="M58.5582 19.1863C58.5582 19.0764 58.4782 18.9864 58.5582 19.1863Z" fill="#D9A500" fill-opacity="0.76" transform="matrix(1 0 0 1.0056 166.53 188)"/><path d="M58.6881 11.3819C58.4782 11.7816 58.2684 12.2013 58.0785 12.641L58.4982 13.6403C58.5482 13.2405 58.6181 12.8408 58.6981 12.4611 58.778 12.0814 58.6781 11.7516 58.6881 11.3819Z" fill="#D9A500" fill-opacity="0.76" transform="matrix(1 0 0 1.0056 166.53 188)"/></g></svg>