<svg width="65" height="54" xmlns="http://www.w3.org/2000/svg" xmlns:xlink="http://www.w3.org/1999/xlink" xml:space="preserve" overflow="hidden"><defs><clipPath id="clip0"><rect x="532" y="96" width="65" height="54"/></clipPath></defs><g clip-path="url(#clip0)" transform="translate(-532 -96)"><path d="M97.7088 50.3854 98.6212 50.3854 98.6212 49.7359 97.7088 49.7359Z" fill="#000000" fill-opacity="0.85" transform="matrix(1 0 0 1.0025 452.344 96)"/><path d="M17.6612 1.74756C18.378 2.23725 19.2386 2.47148 20.1047 2.41256 20.1047 1.70117 17.9705 1.54651 17.6612 1.74756Z" fill="#000000" fill-opacity="0.85" transform="matrix(1 0 0 1.0025 452.344 96)"/><path d="M21.8986 2.25791C22.0224 2.78373 20.5068 2.13419 20.9862 2.90745 24.5454 3.11541 28.1135 3.11541 31.6726 2.90745 31.1777 2.19605 29.7859 2.08779 28.9198 2.0414 26.8166 1.93314 24.3112 2.81466 21.8986 2.25791Z" fill="#000000" fill-opacity="0.85" transform="matrix(1 0 0 1.0025 452.344 96)"/><path d="M59.7419 49.4885C59.4944 48.6843 57.3602 47.9419 57.6077 49.4885 59.7419 49.4885 59.5872 50.2772 59.5872 50.2772L60.0512 50.7875 60.2058 49.9988Z" fill="#000000" fill-opacity="0.85" transform="matrix(1 0 0 1.0025 452.344 96)"/><path d="M60.0512 50.8494C60.0512 51.267 59.68 51.1896 59.4326 51.2824 60.5151 52.6124 58.8913 53.0145 60.0512 53.8651 60.4533 52.3186 62.0152 53.4321 61.2729 52.133L65.2474 50.8339C63.4999 51.5299 61.9998 49.3029 60.0512 50.8494Z" fill="#000000" fill-opacity="0.85" transform="matrix(1 0 0 1.0025 452.344 96)"/><path d="M17.6612 0.866048C17.0117 0.711397 17.0117 0 16.1301 0 16.1301 0.371163 15.8982 0.556745 15.527 0.649536 14.63-0.804188 12.5732 1.14442 11.2586 0 11.537 1.46919 16.2539 1.54651 17.6612 0.866048Z" fill="#000000" fill-opacity="0.85" transform="matrix(1 0 0 1.0025 452.344 96)"/><path d="M5.83036 4.14466 5.83036 4.63954C6.13966 4.63954 6.18606 4.80966 6.44897 4.85606 6.40257 4.46943 6.4799 4.05187 5.83036 4.14466Z" fill="#000000" fill-opacity="0.85" transform="matrix(1 0 0 1.0025 452.344 96)"/><path d="M11.8772 2.11872C11.6298 1.71663 9.4956 1.29907 9.74304 2.11872 11.8772 2.11872 11.7226 2.52082 11.7226 2.52082L12.1865 2.76826 12.3721 2.38163Z" fill="#000000" fill-opacity="0.85" transform="matrix(1 0 0 1.0025 452.344 96)"/><path d="M12.1865 2.76826C12.1865 2.98477 11.8154 2.93838 11.5679 2.98477 12.6505 3.64977 11.0266 3.85082 12.1865 4.29931 12.5886 3.54152 14.1506 4.0828 13.4083 3.43326L17.3828 2.78373C15.6353 3.09303 14.1351 1.995 12.1865 2.76826Z" fill="#000000" fill-opacity="0.85" transform="matrix(1 0 0 1.0025 452.344 96)"/><path d="M13.5475 4.91792C14.2743 4.71687 15.2796 5.58292 15.3569 4.80966L13.5475 4.80966Z" fill="#000000" fill-opacity="0.85" transform="matrix(1 0 0 1.0025 452.344 96)"/><path d="M0 2.36617 0.912444 2.36617 0.912444 1.70117 0 1.70117Z" fill="#000000" fill-opacity="0.85" transform="matrix(1 0 0 1.0025 452.344 96)"/><path d="M91.9248 15.759C92.2262 14.9858 92.6724 14.2772 93.2394 13.6712L93.5951 13.4701C97.4102 8.95373 102.654 5.87632 108.457 4.7478L109.911 3.89722C110.555 3.96166 111.195 4.05974 111.828 4.19105 114.921 3.81989 115.772 4.0364 111.828 3.04663L111.349 3.09303C109.743 3.0582 108.137 3.12535 106.539 3.29408 101.113 4.09048 96.1638 6.84005 92.6208 11.0266 91.5165 13.0469 90.9021 15.2982 90.8268 17.5993 91.2444 17.0117 91.5382 16.3467 91.9248 15.759Z" fill="#000000" fill-opacity="0.85" transform="matrix(1 0 0 1.0025 452.344 96)"/><path d="M109.895 1.33C96.5625 1.33001 85.7542 12.1383 85.7542 25.4711 85.7542 38.8039 96.5625 49.6122 109.895 49.6122 123.222 49.6122 134.028 38.8133 134.036 25.4866 134.028 12.1548 123.227 1.34706 109.895 1.33ZM109.895 48.0193C97.4593 48.034 87.3662 37.9646 87.3515 25.5288 87.3451 20.225 89.2112 15.0892 92.6208 11.0266 94.7704 7.17583 99.0543 4.05187 106.539 3.29408 107.655 3.11677 108.782 3.02371 109.911 3.0157 110.39 3.0157 110.87 3.0157 111.349 3.0157L111.828 3.0157C124.222 4.14192 133.356 15.1017 132.229 27.4952 131.179 39.0552 121.518 47.9257 109.911 47.9883Z" fill="#000000" fill-opacity="0.85" transform="matrix(1 0 0 1.0025 452.344 96)"/><path d="M93.5796 13.4701C92.9795 14.2006 92.4219 14.9648 91.9094 15.759 91.4357 16.906 91.0781 18.0976 90.8423 19.316 90.9428 21.1252 91.3183 22.9088 91.9557 24.605L90.533 21.1409C89.9594 24.3032 90.3361 27.5645 91.6155 30.5127 92.9455 32.8789 91.4299 30.9767 90.6103 29.8941 90.4621 29.7339 90.3324 29.5576 90.2237 29.3683 89.7442 31.5025 96.0231 36.606 97.1056 38.4464 94.4755 36.4493 91.9992 34.2575 89.6978 31.8891 94.4456 47.3543 113.839 52.6743 126.52 39.931 133.217 33.2037 131.16 16.2539 125.948 11.4442 121.902 7.91271 117.056 5.42284 111.828 4.19105 110.885 4.29931 109.741 4.48489 108.457 4.76326ZM108.766 6.85106C108.644 6.42401 108.892 5.9789 109.319 5.85691 109.746 5.73492 110.191 5.98223 110.313 6.40928 110.354 6.55365 110.354 6.70669 110.313 6.85106L110.313 22.3162C112.034 22.7559 113.073 24.5076 112.634 26.2289 112.194 27.9502 110.442 28.9893 108.721 28.5496 107.581 28.2585 106.691 27.3687 106.4 26.2289L96.7036 26.2289C96.2766 26.1069 96.0291 25.6618 96.1511 25.2348 96.2275 24.9675 96.4363 24.7588 96.7036 24.6824L106.478 24.6824C106.768 23.5516 107.651 22.6685 108.782 22.3781Z" fill="#000000" fill-opacity="0.85" transform="matrix(1 0 0 1.0025 452.344 96)"/><path d="M143.424 17.7695C145.403 18.4808 144.661 17.1508 143.424 17.7695Z" fill="#000000" fill-opacity="0.85" transform="matrix(1 0 0 1.0025 452.344 96)"/><path d="M144.042 12.8051C143.656 12.5113 142.496 12.4649 142.496 13.0217 142.944 12.8979 144.089 13.2691 144.042 12.8051Z" fill="#000000" fill-opacity="0.85" transform="matrix(1 0 0 1.0025 452.344 96)"/><path d="M90.6257 29.6931C90.6257 29.7859 90.6257 29.8787 90.6257 29.9096L90.7495 30.0642Z" fill="#000000" fill-opacity="0.85" transform="matrix(1 0 0 1.0025 452.344 96)"/><path d="M111.256 52.9372C111.983 52.7361 112.988 53.6022 113.066 52.8289L111.256 52.8289Z" fill="#000000" fill-opacity="0.85" transform="matrix(1 0 0 1.0025 452.344 96)"/><path d="M90.6103 29.8941 90.6103 29.8941C89.9144 28.9198 90.1309 29.2446 90.6103 29.8941Z" fill="#000000" fill-opacity="0.85" transform="matrix(1 0 0 1.0025 452.344 96)"/><path d="M103.539 52.1794 103.539 52.5815C103.848 52.5815 103.895 52.7516 104.158 52.798 104.111 52.4887 104.189 52.0711 103.539 52.1794Z" fill="#000000" fill-opacity="0.85" transform="matrix(1 0 0 1.0025 452.344 96)"/><path d="M90.6257 29.6931C90.6257 29.523 90.502 29.3838 90.6257 29.6931Z" fill="#000000" fill-opacity="0.85" transform="matrix(1 0 0 1.0025 452.344 96)"/><path d="M90.8268 17.6148C90.502 18.2334 90.1773 18.8829 89.8834 19.5634L90.533 21.1099C90.6103 20.4913 90.7185 19.8727 90.8423 19.285 90.966 18.6974 90.8113 18.187 90.8268 17.6148Z" fill="#000000" fill-opacity="0.85" transform="matrix(1 0 0 1.0025 452.344 96)"/></g></svg>